<?xml version="1.0" encoding="UTF-8"?><svg id="_레이어_1" xmlns="http://www.w3.org/2000/svg" viewBox="0 0 30 30"><defs><style>.cls-1{fill:#fff;}.cls-2{fill:#009b90;}</style></defs><circle class="cls-2" cx="15" cy="15" r="15"/><g><circle class="cls-1" cx="15.17" cy="7.87" r="2.32"/><path class="cls-1" d="M13.04,12.13c.12-.02,2.26-.48,3.56,.09,1,.47,.67,2.04,.67,2.04l-1.38,7.38s-.31,1.2,.41,1.24,1.18-.29,1.18-.29c0,0,.35-.24,.61-.14s.27,.31,.24,.4-.31,.58-.88,.94-1.25,.75-3.04,.64-1.98-1.6-1.98-1.6c0,0-.04-.36,.23-1.74s1.25-6.78,1.25-6.78c0,0,.26-.97-.78-1.04-.82-.05-.97-.26-1.08-.38s-.12-.45,.23-.58c.31-.11,.6-.16,.75-.18Z"/></g></svg>